<?xml version="1.0" encoding="UTF-8" standalone="no"?>
<svg
   xmlns:dc="http://purl.org/dc/elements/1.1/"
   xmlns:cc="http://creativecommons.org/ns#"
   xmlns:rdf="http://www.w3.org/1999/02/22-rdf-syntax-ns#"
   xmlns:svg="http://www.w3.org/2000/svg"
   xmlns="http://www.w3.org/2000/svg"
   xmlns:sodipodi="http://sodipodi.sourceforge.net/DTD/sodipodi-0.dtd"
   xmlns:inkscape="http://www.inkscape.org/namespaces/inkscape"
   version="1.0"
   x="0px"
   y="0px"
   viewBox="0 0 100 125"
   enable-background="new 0 0 100 100"
   xml:space="preserve"
   id="svg2"
   inkscape:version="0.91 r13725"
   sodipodi:docname="campfire.svg"><metadata
     id="metadata14"><rdf:RDF><cc:Work
         rdf:about=""><dc:format>image/svg+xml</dc:format><dc:type
           rdf:resource="http://purl.org/dc/dcmitype/StillImage" /></cc:Work></rdf:RDF></metadata><defs
     id="defs12" /><sodipodi:namedview
     pagecolor="#ffffff"
     bordercolor="#666666"
     borderopacity="1"
     objecttolerance="10"
     gridtolerance="10"
     guidetolerance="10"
     inkscape:pageopacity="0"
     inkscape:pageshadow="2"
     inkscape:window-width="1366"
     inkscape:window-height="705"
     id="namedview10"
     showgrid="false"
     inkscape:zoom="1.888"
     inkscape:cx="50"
     inkscape:cy="88.983051"
     inkscape:window-x="-8"
     inkscape:window-y="-8"
     inkscape:window-maximized="1"
     inkscape:current-layer="svg2"
     inkscape:snap-global="false" /><path
     d="M 40.602366,54.555812 C 38.654496,53.801044 36.794068,52.805061 35.075359,51.56527 25.022414,44.309377 23.710768,31.417364 32.147522,22.769948 L 50.349259,4.1108305 68.550997,22.771246 c 8.436753,8.647414 7.125107,21.539428 -2.927837,28.79532 -1.718709,1.239791 -3.579137,2.235774 -5.527008,2.990543 3.000204,-3.258991 2.884115,-7.757774 -0.645271,-10.946735 l -9.101622,-8.225937 -9.100115,8.225937 c -3.530893,3.187664 -3.646981,7.686447 -0.646778,10.945438 l 0,0 z m 22.002498,5.96552 19.918941,-4.590856 c 2.272012,-0.523928 4.607347,0.635458 5.214926,2.588518 l 1.102085,3.539108 c 0.500537,1.605504 -0.322635,3.249913 -1.892088,4.074711 l -24.343864,-5.611481 0,0 z m -50.747162,0.625083 1.102085,-3.537812 c 0.607579,-1.954356 2.942913,-3.112447 5.214927,-2.589815 l 69.918313,16.115987 c 2.270506,0.522631 3.618336,2.531457 3.010756,4.485814 l -1.102085,3.537815 c -0.607579,1.954356 -2.942913,3.112446 -5.214926,2.589815 L 52.324268,74.265378 15.913254,82.658609 c -2.272014,0.522632 -4.60584,-0.636754 -5.214926,-2.589815 L 9.5977498,76.529683 C 8.9886628,74.575325 10.336494,72.567797 12.608508,72.043868 L 27.648724,68.577381 14.869967,65.632228 c -2.272013,-0.522632 -3.619843,-2.531457 -3.012265,-4.485813 l 0,0 z"
     id="path4"
     style="fill:#ffffff;stroke:none"
     inkscape:connector-curvature="0" /></svg>