<?xml version="1.0" encoding="UTF-8" standalone="no"?>
<svg
   xmlns:dc="http://purl.org/dc/elements/1.1/"
   xmlns:cc="http://creativecommons.org/ns#"
   xmlns:rdf="http://www.w3.org/1999/02/22-rdf-syntax-ns#"
   xmlns:svg="http://www.w3.org/2000/svg"
   xmlns="http://www.w3.org/2000/svg"
   xmlns:sodipodi="http://sodipodi.sourceforge.net/DTD/sodipodi-0.dtd"
   xmlns:inkscape="http://www.inkscape.org/namespaces/inkscape"
   viewBox="0 0 36 45.00000125"
   version="1.1"
   x="0px"
   y="0px"
   id="svg2"
   inkscape:version="0.91 r13725"
   sodipodi:docname="dollar.svg">
  <metadata
     id="metadata16">
    <rdf:RDF>
      <cc:Work
         rdf:about="">
        <dc:format>image/svg+xml</dc:format>
        <dc:type
           rdf:resource="http://purl.org/dc/dcmitype/StillImage" />
      </cc:Work>
    </rdf:RDF>
  </metadata>
  <defs
     id="defs14" />
  <sodipodi:namedview
     pagecolor="#ffffff"
     bordercolor="#666666"
     borderopacity="1"
     objecttolerance="10"
     gridtolerance="10"
     guidetolerance="10"
     inkscape:pageopacity="0"
     inkscape:pageshadow="2"
     inkscape:window-width="1366"
     inkscape:window-height="705"
     id="namedview12"
     showgrid="false"
     inkscape:zoom="5.2444444"
     inkscape:cx="18"
     inkscape:cy="22.309322"
     inkscape:window-x="-8"
     inkscape:window-y="-8"
     inkscape:window-maximized="1"
     inkscape:current-layer="svg2" />
  <g
     transform="matrix(0.97392317,0,0,0.84110053,0.08804638,-852.95585)"
     id="g4"
     style="fill:#ffffff">
    <path
       style="color:#000000;font-style:normal;font-variant:normal;font-weight:normal;font-stretch:normal;font-size:medium;line-height:normal;font-family:sans-serif;text-indent:0;text-align:start;text-decoration:none;text-decoration-line:none;text-decoration-style:solid;text-decoration-color:#000000;letter-spacing:normal;word-spacing:normal;text-transform:none;direction:ltr;block-progression:tb;writing-mode:lr-tb;baseline-shift:baseline;text-anchor:start;white-space:normal;clip-rule:nonzero;display:inline;overflow:visible;visibility:visible;opacity:1;isolation:auto;mix-blend-mode:normal;color-interpolation:sRGB;color-interpolation-filters:linearRGB;solid-color:#000000;solid-opacity:1;fill:#ffffff;fill-opacity:1;fill-rule:nonzero;stroke:none;stroke-width:0.99999988;stroke-linecap:round;stroke-linejoin:round;stroke-miterlimit:34.17825699;stroke-dasharray:none;stroke-dashoffset:0;stroke-opacity:1;color-rendering:auto;image-rendering:auto;shape-rendering:auto;text-rendering:auto;enable-background:accumulate"
       d="M 18,0.00390625 C 10.713408,-0.15159375 4.0628105,5.7905688 3.46875,12.980469 c -0.5564915,4.585619 1.4516527,9.105698 4.7011719,12.251953 3.1948511,3.5107 6.3126961,7.049409 9.4570311,10.599609 a 0.50005006,0.50005006 0 0 0 0.736328,0.01367 c 3.091992,-3.2349 5.963887,-6.703906 8.980469,-10.003906 1.717501,-1.8713 3.32849,-3.725906 4.298828,-6.253906 C 34.289363,13.163991 31.3964,5.253075 25.269531,1.921875 l -0.002,0 c -2.19846,-1.2553 -4.727113,-1.9186625 -7.263672,-1.9140625 l -0.0039,0 0,-0.00390625 z M 17.990234,1 l 0,0.00391 a 0.50005006,0.50005006 0 0 0 0.01172,0 c 2.362491,0 4.726659,0.6170563 6.771485,1.7851563 a 0.50005006,0.50005006 0 0 0 0.0098,0 c 5.6648,3.0735 8.376523,10.5019747 5.931641,16.4218757 a 0.50005006,0.50005006 0 0 0 -0.0059,0.01172 c -0.896436,2.3364 -2.395928,4.081153 -4.101562,5.939453 a 0.50005006,0.50005006 0 0 0 -0.002,0 c -2.916318,3.1903 -5.682206,6.494838 -8.603516,9.585938 -3.017708,-3.4084 -6.015931,-6.811406 -9.0917968,-10.191406 a 0.50005006,0.50005006 0 0 0 -0.023386,-0.0254 C 5.8183391,21.57225 3.9438092,17.319338 4.4609375,13.085938 a 0.50005006,0.50005006 0 0 0 0.00195,-0.01758 C 5.0041934,6.4406594 11.256687,0.8502 17.990234,1 Z M 17.853516,7.0019531 C 13.710386,7.0019531 10.375,10.3695 10.375,14.5 c 0,4.132 3.335403,7.501953 7.478516,7.501953 4.142107,0 7.521484,-3.366353 7.521484,-7.501953 a 0.50004994,0.50004994 0 0 0 -0.03906,-0.193359 c -0.109432,-4.0399 -3.40895,-7.3046879 -7.482422,-7.3046879 z m 0,1 c 3.602055,0 6.521484,2.9074469 6.521484,6.4980469 0,3.5924 -2.919412,6.501953 -6.521484,6.501953 C 14.250288,21.001953 11.375,18.096 11.375,14.5 c 0,-3.5943 2.875305,-6.4980469 6.478516,-6.4980469 z m 0.01367,1.9999999 A 0.50004997,0.50004997 0 0 0 17.375,10.507812 l 0,0.4375 c -0.980215,0.206078 -1.748047,1.000271 -1.748047,1.998047 0,1.140404 1.002376,2.015358 2.179688,2.048829 a 0.50004997,0.50004997 0 0 0 0.03711,0.002 c 0.01064,1.38e-4 0.02058,0.0039 0.03125,0.0039 0.73012,0 1.248047,0.495587 1.248047,1.054687 0,0.5588 -0.517996,1.052735 -1.248047,1.052735 -0.730053,0 -1.248047,-0.493935 -1.248047,-1.052735 a 0.50004997,0.50004997 0 1 0 -1,0 c 0,0.983285 0.783814,1.682236 1.748047,1.892578 l 0,0.548829 a 0.50004997,0.50004997 0 1 0 1,0 l 0,-0.548829 c 0.964004,-0.210377 1.748047,-0.907552 1.748047,-1.890624 0,-1.035549 -0.868945,-1.758997 -1.902344,-1.925782 a 0.50004997,0.50004997 0 0 0 -0.08594,-0.0625 0.50004997,0.50004997 0 0 0 -0.1875,-0.06445 0.50004997,0.50004997 0 0 0 -0.05078,-0.0039 0.50004997,0.50004997 0 0 0 -0.02148,0 c -0.730053,0 -1.248047,-0.495688 -1.248047,-1.054688 0,-0.551451 0.506182,-1.035751 1.220703,-1.048828 a 0.50004997,0.50004997 0 0 0 0.05664,0.002 c 0.713252,0.01412 1.21875,0.49604 1.21875,1.046875 a 0.50004997,0.50004997 0 1 0 1,0 c 0,-0.997776 -0.767833,-1.791969 -1.748047,-1.998047 l 0,-0.4375 A 0.50004997,0.50004997 0 0 0 17.867191,10.00205 Z"
       transform="translate(0,1016.3622)"
       id="path6"
       inkscape:connector-curvature="0" />
  </g>
</svg>
