<?xml version="1.0" encoding="UTF-8" standalone="no"?>
<svg
   xmlns:dc="http://purl.org/dc/elements/1.1/"
   xmlns:cc="http://creativecommons.org/ns#"
   xmlns:rdf="http://www.w3.org/1999/02/22-rdf-syntax-ns#"
   xmlns:svg="http://www.w3.org/2000/svg"
   xmlns="http://www.w3.org/2000/svg"
   xmlns:sodipodi="http://sodipodi.sourceforge.net/DTD/sodipodi-0.dtd"
   xmlns:inkscape="http://www.inkscape.org/namespaces/inkscape"
   xml:space="preserve"
   style="shape-rendering:geometricPrecision;text-rendering:geometricPrecision;image-rendering:optimizeQuality;"
   viewBox="0 0 99.9988 73.963875"
   x="0px"
   y="0px"
   fill-rule="evenodd"
   clip-rule="evenodd"
   id="svg2"
   version="1.1"
   inkscape:version="0.91 r13725"
   sodipodi:docname="hammock.svg"><metadata
     id="metadata18"><rdf:RDF><cc:Work
         rdf:about=""><dc:format>image/svg+xml</dc:format><dc:type
           rdf:resource="http://purl.org/dc/dcmitype/StillImage" /></cc:Work></rdf:RDF></metadata><sodipodi:namedview
     pagecolor="#ffffff"
     bordercolor="#666666"
     borderopacity="1"
     objecttolerance="10"
     gridtolerance="10"
     guidetolerance="10"
     inkscape:pageopacity="0"
     inkscape:pageshadow="2"
     inkscape:window-width="1366"
     inkscape:window-height="705"
     id="namedview16"
     showgrid="false"
     inkscape:zoom="3.1907468"
     inkscape:cx="-7.1972401"
     inkscape:cy="36.355124"
     inkscape:window-x="-8"
     inkscape:window-y="-8"
     inkscape:window-maximized="1"
     inkscape:current-layer="svg2" /><defs
     id="defs4"><style
       type="text/css"
       id="style6">
   
    .fil0 {fill:black}
   
  </style></defs><g
     id="g8"
     style="fill:#ffffff"
     transform="matrix(1,0,0,1.2435896,0,1.4968707e-4)"><path
       class="fil0"
       d="m 0.0070865,6.46289 c 5.50267,20.8131 19.8645995,54.0476 49.9597995,52.6799 30.0952,-1.36888 56.075504,-20.7162 48.8095,-58.3077 -0.0248,-0.126376 -0.262201,-1.5425 -1.08069,-0.38149 -20.2261,28.7003 -40.5289,35.9097 -48.3748,38.1455 -9.3471,2.66216 -19.3296,2.88303 -27.9267,-5.46133 8.82388,5.35858 17.1588,6.82666 23.6394,4.92984 l 0.0035,-0.0012 c -10.7361,-2.35744 -29.2472,-12.6163 -44.76660025,-31.7168001 -0.121652,-0.149998 -0.309444,-0.060235 -0.263382,0.113384 z m 91.7442005,16.2116 1.217699,0.569282 c 2.330281,-4.23064 4.17631,-10.4987 4.750321,-16.3852 l -0.05906,-0.030708 c -0.87164,5.3207802 -2.86295,10.1939002 -5.90896,15.8466002 z m 3.12987,1.46336 2.052719,0.95904 c 1.410211,-4.84244 1.94288,-12.7734 1.59683,-17.8462 l -0.05197,-0.022441 c -0.284641,5.8711696 -1.41258,11.7458996 -3.59758,16.9095996 z m -10.2164,-5.17433 1.024,0.543299 c 2.23225,-2.6539 7.34162,-9.95772 10.005,-13.8269 l -0.0071,-0.00472 c -3.27396,3.94246 -8.15066,9.8644103 -11.0219,13.2884003 z m 2.19327,1.16337 1.18345,0.629518 c 0.342513,-0.440544 0.742902,-0.999197 1.1799,-1.64407 -0.420467,0.646053 -0.813767,1.20589 -1.16219,1.65352 l -0.01417,-0.0071 -0.0035,-0.0024 c 0.342514,-0.440544 0.742902,-0.999197 1.1799,-1.64407 2.20272,-3.37554 5.20504,-9.08726 6.95776,-13.1395997 l -0.08268,-0.049606 c -2.61728,4.9333902 -7.31327,11.4471002 -9.23844,14.2037002 z m 9.75457,-13.8955 0.191336,0.114565 c -0.864553,6.05424 -4.33458,13.3829 -5.86408,15.9482 l -1.72793,-0.916521 c 1.86611,-2.8594 5.70818,-9.99787 7.40067,-15.1462 z m -88.8836005,13.3864 -0.552747,0.244484 c -1.33817,-2.08343 -2.85468,-4.97354 -4.08537,-7.44083 l 0.00118,0 c 1.56848,2.84051 2.87358,4.89795 4.63693,7.19634 z m -1.27557,0.563377 -0.778334,0.342514 c -0.874002,-1.88737 -2.12949,-5.37275 -2.99995,-7.91326 l 0.031889,-0.01535 c 0.957859,2.31729 2.44602,5.6196 3.7464,7.5861 z m 3.6590005,-1.81414 -0.6743995,0.360231 c -1.13975,-1.27439 -3.52081,-4.32159 -5.27,-6.73218 l 0.040157,-0.0189 c 1.88147,2.29012 4.22356,4.90386 5.9042397,6.39084 z m -1.3287205,0.709831 -0.49015,0.262201 c -1.02636,-1.27203 -3.06137,-4.39245 -4.57434,-7.16209 l 0.053149,-0.02008 c 1.48344,2.25705 3.94364,5.42708 5.01134,6.91997 z m 78.6448005,12.4864 c -16.0982,11.0538 -30.0267,20.5839 -58.6278,13.0935 20.2721,10.8589 41.9863,4.08655 58.6278,-13.0935 z"
       id="path10"
       style="fill:#ffffff"
       inkscape:connector-curvature="0" /></g></svg>