<?xml version="1.0" encoding="UTF-8" standalone="no"?>
<svg
   xmlns:dc="http://purl.org/dc/elements/1.1/"
   xmlns:cc="http://creativecommons.org/ns#"
   xmlns:rdf="http://www.w3.org/1999/02/22-rdf-syntax-ns#"
   xmlns:svg="http://www.w3.org/2000/svg"
   xmlns="http://www.w3.org/2000/svg"
   xmlns:sodipodi="http://sodipodi.sourceforge.net/DTD/sodipodi-0.dtd"
   xmlns:inkscape="http://www.inkscape.org/namespaces/inkscape"
   version="1.1"
   x="0px"
   y="0px"
   viewBox="0 0 32 40"
   enable-background="new 0 0 32 32"
   xml:space="preserve"
   id="svg4316"
   inkscape:version="0.91 r13725"
   sodipodi:docname="Logo white.svg"><metadata
     id="metadata4350"><rdf:RDF><cc:Work
         rdf:about=""><dc:format>image/svg+xml</dc:format><dc:type
           rdf:resource="http://purl.org/dc/dcmitype/StillImage" /></cc:Work></rdf:RDF></metadata><defs
     id="defs4348" /><sodipodi:namedview
     pagecolor="#ffffff"
     bordercolor="#666666"
     borderopacity="1"
     objecttolerance="10"
     gridtolerance="10"
     guidetolerance="10"
     inkscape:pageopacity="0"
     inkscape:pageshadow="2"
     inkscape:window-width="1366"
     inkscape:window-height="705"
     id="namedview4346"
     showgrid="false"
     inkscape:zoom="13.25"
     inkscape:cx="11.855563"
     inkscape:cy="24.191615"
     inkscape:window-x="-8"
     inkscape:window-y="-8"
     inkscape:window-maximized="1"
     inkscape:current-layer="svg4316" /><g
     display="none"
     id="g4318"><rect
       x="-324"
       y="-4.75"
       display="inline"
       fill="#000000"
       width="400.25"
       height="201.25"
       id="rect4320" /></g><g
     display="none"
     id="g4332"><circle
       display="inline"
       cx="16"
       cy="9"
       r="1.975"
       id="circle4334" /><path
       display="inline"
       d="M10.452,12.242L8.68,14.409l1.908,1.909l2.251-1.843c0.471,0.248,0.977,0.438,1.51,0.559L14.645,18h1.349   h0.011h1.349l0.296-2.966c0.533-0.12,1.039-0.311,1.51-0.559l2.251,1.843l1.908-1.909l-1.772-2.167   c0.307-0.497,0.544-1.041,0.702-1.617L25,10.35v-2.7l-2.746-0.275c-0.157-0.578-0.398-1.121-0.705-1.619l1.771-2.166l-1.908-1.909   l-2.251,1.843c-0.471-0.248-0.977-0.439-1.51-0.559L17.355,0h-1.349h-0.011h-1.349l-0.296,2.966   c-0.533,0.12-1.039,0.311-1.509,0.559l-2.251-1.843L8.68,3.591l1.771,2.166c-0.307,0.498-0.548,1.041-0.705,1.619L7,7.65v2.7   l2.75,0.275C9.908,11.202,10.145,11.745,10.452,12.242z M16,4.939c2.242,0,4.059,1.818,4.059,4.061S18.242,13.061,16,13.061   S11.941,11.243,11.941,9S13.758,4.939,16,4.939z"
       id="path4336" /><path
       display="inline"
       d="M18.403,32h3.727c0.186-3.447,4.1-4.717,7.455-7.982c3.355-3.265,2.236-8.708,2.236-8.708   c-2.236,0.544-1.305,2.177-2.236,5.08c-0.932,2.903-4.473,3.628-4.473,3.628s1.864-1.451,2.982-3.628   c1.118-2.177-1.491-1.451-1.491-1.451s-1.305,1.814-5.964,5.08C15.98,27.283,18.403,32,18.403,32z"
       id="path4338" /><path
       display="inline"
       d="M9.87,32h3.727c0,0,2.423-4.717-2.236-7.982s-5.964-5.08-5.964-5.08s-2.609-0.726-1.491,1.451   s2.982,3.628,2.982,3.628s-3.541-0.726-4.473-3.628c-0.932-2.903,0-4.535-2.236-5.08c0,0-1.118,5.442,2.236,8.708   C5.77,27.283,9.684,28.553,9.87,32z"
       id="path4340" /></g><g
     id="g7752"
     transform="matrix(1.466759,0,0,1.4255149,-6.7368861,-8.478002)"
     inkscape:export-xdpi="90"
     inkscape:export-ydpi="90"><path
       d="m 25.397866,18.091421 -0.331611,0.08881 c -1.160637,0.309754 -1.25012,1.132875 -1.354077,2.086684 -0.05395,0.490984 -0.114485,1.046952 -0.307925,1.707615 -0.205282,0.704707 -0.646772,1.208689 -1.108659,1.561042 0.267131,-0.369683 0.537552,-0.802182 0.76389,-1.285946 0.263183,-0.562466 0.28358,-1.000742 0.05921,-1.301831 -0.37372,-0.505425 -1.223801,-0.277984 -1.389607,-0.225997 l -0.111194,0.03466 -0.06777,0.101808 c -0.0079,0.01227 -0.856002,1.262841 -3.723383,3.469383 -3.167409,2.436149 -1.546859,6.007339 -1.529094,6.043441 l 0.09146,0.19495 2.889093,0 0.01645,-0.341524 c 0.07106,-1.449848 1.140241,-2.315569 2.494319,-3.41162 0.675064,-0.546581 1.44027,-1.166088 2.158101,-1.93289 2.241663,-2.394994 1.548834,-6.25933 1.519225,-6.42251 l -0.06843,-0.366072 z m -1.908736,6.271605 c -0.685592,0.732867 -1.399476,1.310496 -2.090332,1.869351 -1.34026,1.08522 -2.508794,2.031088 -2.728551,3.611624 l -1.867285,0 c -0.262525,-0.705429 -0.933642,-3.130026 1.402766,-4.926451 2.525243,-1.942277 3.530602,-3.166128 3.800365,-3.527146 0.277658,-0.06498 0.555974,-0.05054 0.604006,0.01372 6.57e-4,7.22e-4 0.05001,0.12058 -0.134224,0.515534 -0.669143,1.428909 -1.798857,2.408711 -1.8107,2.418098 l -1.104054,0.947311 1.3725,-0.308309 c 0.09935,-0.02239 2.453525,-0.575463 3.098325,-2.782005 0.211862,-0.726368 0.279632,-1.344431 0.333584,-1.841913 0.08225,-0.750918 0.123038,-1.122766 0.511234,-1.338655 0.105272,1.007962 0.200676,3.652058 -1.387634,5.348842 z"
       id="path4324"
       inkscape:connector-curvature="0"
       style="fill:#ffffff;stroke:none" /><path
       d="m 9.3418641,26.813616 c 1.3540779,1.096051 2.4232599,1.961772 2.4943179,3.41162 l 0.01711,0.340801 2.889093,0 0.09146,-0.195672 c 0.0171,-0.0361 1.638315,-3.607291 -1.529094,-6.043441 C 10.43737,22.120382 9.5892629,20.869816 9.581367,20.857541 L 9.51228,20.754291 9.401743,20.721071 c -0.1658064,-0.05126 -1.0152306,-0.279426 -1.3896087,0.226 -0.2243636,0.301089 -0.2046249,0.738643 0.059214,1.301831 0.2263374,0.483764 0.4967586,0.916986 0.7638893,1.285946 C 8.3740061,23.182497 7.9325159,22.677794 7.7265751,21.973809 7.5331382,21.313146 7.4726062,20.756456 7.4186536,20.266194 7.3153538,19.313107 7.2252142,18.489986 6.0645764,18.17951 l -0.331611,-0.08881 -0.068428,0.366794 c -0.03027,0.16318 -0.7230953,4.027516 1.5192247,6.42251 0.7178319,0.767524 1.4830371,1.387031 2.1581019,1.933612 z m -3.08648,-7.800155 c 0.3881954,0.215889 0.4289886,0.587738 0.5105751,1.338655 0.053952,0.496761 0.1217226,1.115546 0.3335848,1.841914 0.6447985,2.206542 2.998972,2.7589 3.098324,2.782005 l 1.378422,0.309753 -1.109976,-0.948755 C 10.454473,24.326923 9.3280475,23.354342 8.6556145,21.918934 8.4713861,21.523981 8.5207333,21.404123 8.5213912,21.4034 c 0.048031,-0.06426 0.3263468,-0.07798 0.6040052,-0.01372 0.2697624,0.361018 1.2751226,1.584147 3.8003646,3.527145 2.325882,1.789206 1.662002,4.218857 1.40145,4.926452 l -1.865968,0 C 12.241485,28.263465 11.072952,27.316875 9.7326912,26.231655 9.0418353,25.673522 8.327951,25.09517 7.6423593,24.362304 6.0586543,22.670574 6.1514264,20.024312 6.2553841,19.013461 Z"
       id="path4326"
       inkscape:connector-curvature="0"
       style="fill:#ffffff;stroke:none" /><g
       id="g4919"
       transform="matrix(0.17044028,0,0,0.13949411,7.0592091,7.6937036)"
       style="fill:#ffffff;stroke:none"><path
         id="path4921"
         d="M 96.5,44.1 51.7,3.1 C 50.8,2.3 49.5,2.3 48.6,3 l -45.1,38.5 3,3.5 7.4,-6.3 0,48.6 0,4.3 4.4,0 7.7,0 0,5.9 4.6,0 0,-5.9 38.7,0 0,5.9 4.6,0 0,-5.9 7.7,0 4.4,0 0,-4.3 0,-46.5 7.4,6.7 3.1,-3.4 z m -34,-24.9 -25.8,0 5.4,-4.6 15.4,0 5,4.6 z m 2.5,2.3 5,4.6 -18.9,0 0,-3.1 -2.3,0 0,3.1 -20.2,0 5.4,-4.6 31,0 z m -15,7.3 c 1.3,0 2.3,1 2.3,2.3 0,1.3 -1,2.3 -2.3,2.3 -1.3,0 -2.3,-1 -2.3,-2.3 0,-1.2 1,-2.3 2.3,-2.3 z m -3.7,-0.4 c -0.6,0.8 -0.9,1.7 -0.9,2.7 0,0.7 0.1,1.3 0.4,1.9 l -25.2,0 5.4,-4.6 20.3,0 z m 7.4,0 18.9,0 5,4.6 -23.4,0 c 0.3,-0.6 0.4,-1.2 0.4,-1.9 0,-1 -0.4,-1.9 -0.9,-2.7 z M 50,7.9 54.9,12.4 44.7,12.4 50,7.9 Z M 18.3,49 l 3.4,0 0,4.6 -3.4,0 0,-4.6 z m 5.8,12.9 5.2,0 0,5.5 -5.2,0 0,-5.5 z m 22.5,5.5 -5.3,0 0,-5.5 5.3,0 0,5.5 z m 2.4,-5.5 5,0 0,5.5 -5,0 0,-5.5 z m -12.3,5.5 -5.2,0 0,-5.5 5.2,0 0,5.5 z m 17.3,-7.8 -5,0 0,-4.6 5,0 0,4.6 z m -7.4,0 -5.3,0 0,-4.6 5.3,0 0,4.6 z m -9.9,0 -5.2,0 0,-4.6 5.2,0 0,4.6 z m -7.5,0 -5.2,0 0,-4.6 5.2,0 0,4.6 z m 24.8,-6.9 -5,0 0,-5.5 5,0 0,5.5 z m -7.4,0 -5.3,0 0,-5.5 5.3,0 0,5.5 z m -9.9,0 -5.2,0 0,-5.5 5.2,0 0,5.5 z m -7.5,0 -5.2,0 0,-5.5 5.2,0 0,5.5 z m -10.9,3.2 3.4,0 0,4.6 -3.4,0 0,-4.6 z m 0,6.9 3.4,0 0,4.6 -3.4,0 0,-4.6 z m 0,6.8 4.3,0 c 0.1,0 0.2,0.1 0.3,0.1 l 31.7,0 0,4.5 -36.3,0 0,-4.6 z m 0,6.9 36.3,0 0,4.6 -36.3,0 0,-4.6 z m 38.6,10.7 0,-40 18.4,0 0,40.1 -18.4,0 z m 20.7,-10.7 4,0 0,4.6 -4,0 0,-4.6 z m 0,-2.3 0,-4.6 4,0 0,4.6 -4,0 z m 0,-6.9 0,-4.6 4,0 0,4.6 -4,0 z m 0,-6.8 0,-4.6 4,0 0,4.6 -4,0 z m 0,-6.9 0,-4.6 4,0 0,4.6 -4,0 z m 0,-6.9 0,-0.7 c 0,-0.6 -0.5,-1.1 -1.2,-1.1 l -53.6,0 c -0.6,0 -1.2,0.5 -1.2,1.2 l 0,0.7 -3.4,0 0,-4.6 63.4,0 0,4.6 -4,0 z m -59.3,36.7 36.3,0 0,3.9 -36.3,0 0,-3.9 z m 59.3,3.8 0,-3.9 4,0 0,3.9 -4,0 z m 4.1,-47.3 -63.4,0 0,-4.6 29.8,0 c 0.6,0.3 1.2,0.4 1.9,0.4 0.7,0 1.3,-0.2 1.9,-0.4 l 28.1,0 1.6,1.5 0,3.1 z"
         inkscape:connector-curvature="0"
         style="fill:#ffffff;stroke:none" /><rect
         id="rect4923"
         height="2.3"
         width="3"
         y="67.599998"
         x="59.099998"
         style="fill:#ffffff;stroke:none" /></g></g></svg>