<?xml version="1.0" encoding="UTF-8" standalone="no"?>
<svg
   xmlns:dc="http://purl.org/dc/elements/1.1/"
   xmlns:cc="http://creativecommons.org/ns#"
   xmlns:rdf="http://www.w3.org/1999/02/22-rdf-syntax-ns#"
   xmlns:svg="http://www.w3.org/2000/svg"
   xmlns="http://www.w3.org/2000/svg"
   xmlns:sodipodi="http://sodipodi.sourceforge.net/DTD/sodipodi-0.dtd"
   xmlns:inkscape="http://www.inkscape.org/namespaces/inkscape"
   version="1.1"
   x="0px"
   y="0px"
   viewBox="0 0 100 99.422"
   enable-background="new 0 0 100 99.422"
   xml:space="preserve"
   id="svg2"
   inkscape:version="0.91 r13725"
   sodipodi:docname="supportlocal.svg"><metadata
     id="metadata12"><rdf:RDF><cc:Work
         rdf:about=""><dc:format>image/svg+xml</dc:format><dc:type
           rdf:resource="http://purl.org/dc/dcmitype/StillImage" /></cc:Work></rdf:RDF></metadata><defs
     id="defs10" /><sodipodi:namedview
     pagecolor="#ffffff"
     bordercolor="#666666"
     borderopacity="1"
     objecttolerance="10"
     gridtolerance="10"
     guidetolerance="10"
     inkscape:pageopacity="0"
     inkscape:pageshadow="2"
     inkscape:window-width="1366"
     inkscape:window-height="705"
     id="namedview8"
     showgrid="false"
     inkscape:zoom="2.3737202"
     inkscape:cx="50"
     inkscape:cy="85.519769"
     inkscape:window-x="-8"
     inkscape:window-y="-8"
     inkscape:window-maximized="1"
     inkscape:current-layer="svg2" /><g
     id="g4140"
     transform="matrix(0.51552841,0,0,0.48925791,24.8555,37.719323)"
     style="fill:#ffffff"><path
       style="fill:#ffffff"
       id="path4"
       d="M 58.994,62.688 65.61,49.235 65.592,49.231 C 72.555,44.331 77.117,36.245 77.117,27.083 77.118,12.125 64.993,0 50.036,0 35.079,0 22.953,12.125 22.953,27.083 c 0,9.16 4.559,17.242 11.52,22.143 l -0.047,0.009 6.616,13.451 C 17.705,64.251 0,71.81 0,80.902 c 0,10.229 22.387,18.52 50,18.52 27.613,0 50,-8.29 50,-18.52 0,-9.089 -17.687,-16.644 -41.006,-18.214 z m -4.337,-41.627 8.92,3.634 3.125,7.948 -1.854,0 0,7.876 -6.485,0 0,-7.414 -7.411,0 0,7.414 -6.486,0 0,-7.876 -1.854,0 3.125,-7.948 8.92,-3.634 z m -17.73,19.459 -3.558,0 0,-21.312 c 0,-3.072 2.489,-5.559 5.559,-5.559 3.07,0 5.56,2.487 5.56,5.559 l 0,1.122 -5.933,15.091 3.153,0 0,5.098 -2.779,0 -2.002,0 z M 50,92.391 c -17.13,0 -31.017,-5.144 -31.017,-11.488 0,-5.642 10.982,-10.33 25.458,-11.301 l 5.559,11.3 0.035,0 5.557,-11.299 c 14.46,0.976 25.424,5.661 25.424,11.299 C 81.017,87.247 67.132,92.391 50,92.391 Z"
       inkscape:connector-curvature="0" /><rect
       style="fill:#ffffff"
       id="rect6"
       height="3.7060001"
       width="3.7060001"
       y="25.694"
       x="52.805" /></g></svg>