<?xml version="1.0" encoding="UTF-8" standalone="no"?>
<svg
   xmlns:dc="http://purl.org/dc/elements/1.1/"
   xmlns:cc="http://creativecommons.org/ns#"
   xmlns:rdf="http://www.w3.org/1999/02/22-rdf-syntax-ns#"
   xmlns:svg="http://www.w3.org/2000/svg"
   xmlns="http://www.w3.org/2000/svg"
   xmlns:sodipodi="http://sodipodi.sourceforge.net/DTD/sodipodi-0.dtd"
   xmlns:inkscape="http://www.inkscape.org/namespaces/inkscape"
   version="1.1"
   x="0px"
   y="0px"
   viewBox="0 0 100 125"
   enable-background="new 0 0 100 100"
   xml:space="preserve"
   id="svg2"
   inkscape:version="0.91 r13725"
   sodipodi:docname="taketime.svg"><metadata
     id="metadata16"><rdf:RDF><cc:Work
         rdf:about=""><dc:format>image/svg+xml</dc:format><dc:type
           rdf:resource="http://purl.org/dc/dcmitype/StillImage" /><dc:title></dc:title></cc:Work></rdf:RDF></metadata><defs
     id="defs14" /><sodipodi:namedview
     pagecolor="#ffffff"
     bordercolor="#666666"
     borderopacity="1"
     objecttolerance="10"
     gridtolerance="10"
     guidetolerance="10"
     inkscape:pageopacity="0"
     inkscape:pageshadow="2"
     inkscape:window-width="1366"
     inkscape:window-height="705"
     id="namedview12"
     showgrid="false"
     inkscape:zoom="1.888"
     inkscape:cx="50"
     inkscape:cy="61.970339"
     inkscape:window-x="-8"
     inkscape:window-y="-8"
     inkscape:window-maximized="1"
     inkscape:current-layer="svg2" /><g
     id="g4144"
     transform="matrix(0.77541725,0,0,1.0141502,11.762465,3.0825467)"
     style="fill:#ffffff"><path
       id="path4"
       d="m 75.284,43.056 c -1.563,-3.424 -0.046,-7.458 3.376,-9.024 3.418,-1.555 7.458,-0.046 9.007,3.377 1.561,3.422 0.056,7.453 -3.363,9.013 -3.42,1.557 -7.457,0.044 -9.02,-3.366 z"
       inkscape:connector-curvature="0"
       style="fill:#ffffff" /><path
       id="path6"
       d="m 98.646,33.767 c -0.742,-0.322 -1.618,0.024 -1.941,0.775 -4.676,10.887 -12.553,19.225 -22.51,24.353 l 2.17,-4.477 c 0.058,-0.105 0.251,-0.554 0.261,-0.578 1.819,-4.225 -1.248,-10.123 -7.43,-8.872 L 52.617,49.854 48.399,39.721 C 46.572,35.556 40.932,34.394 38.244,38.42 L 27.796,55.029 c -1.18,1.876 -0.614,4.351 1.261,5.53 0.664,0.418 1.4,0.614 2.129,0.614 1.334,0 2.637,-0.661 3.4,-1.875 l 7.229,-11.492 3.601,11.379 c 2.088,3.38 5.134,4.169 7.971,3.516 L 66.762,59 l -1.71,3.53 c -4.955,1.432 -10.263,2.194 -15.832,2.194 -0.056,0 -0.118,0 -0.174,0 C 26.028,64.66 10.302,51.284 3.256,38.786 2.855,38.074 1.959,37.822 1.241,38.224 c -0.709,0.4 -0.962,1.302 -0.561,2.014 7.452,13.223 24.07,27.374 48.355,27.442 0.062,0 0.123,0 0.184,0 4.93,0 9.652,-0.586 14.143,-1.662 l -5.244,10.818 c -0.8,1.65 -0.11,3.639 1.54,4.436 0.468,0.229 0.962,0.334 1.447,0.334 1.233,0 2.418,-0.688 2.991,-1.873 l 8.04,-16.59 c 12.172,-5.195 21.798,-14.66 27.286,-27.435 0.324,-0.75 -0.024,-1.62 -0.776,-1.941 z"
       inkscape:connector-curvature="0"
       style="fill:#ffffff" /></g></svg>